<svg width="564" height="142" viewBox="0 0 564 142" fill="none" xmlns="http://www.w3.org/2000/svg">
<path d="M165 80.76H182.28C199 81 211.32 69.48 211.08 54.2C211.32 38.6 199 27.8 182.28 27.96H165V80.76ZM175.8 71V37.72H182.2C193 37.72 199.96 43.96 199.96 54.2C199.96 64.36 192.84 71 182.2 71H175.8Z" fill="white"/>
<path d="M223.034 80.76H233.834V27.96H223.034V80.76Z" fill="white"/>
<path d="M282.805 80.76H294.405L270.885 27H267.285L243.685 80.76H255.285L258.245 73.88H279.845L282.805 80.76ZM276.085 65H262.005L269.045 47.16L276.085 65Z" fill="white"/>
<path d="M345.296 65.24C345.296 58.84 341.776 54.36 335.936 52.2C338.576 49.72 339.856 46.52 339.856 42.68C339.856 34.04 332.896 27.96 323.136 27.96H304.416V80.76H327.936C338.096 80.76 345.296 74.36 345.296 65.24ZM322.256 37.24C326.656 37.24 329.136 39.48 329.136 43.24C329.136 47 326.656 49.32 322.256 49.32H314.816V37.24H322.256ZM334.656 64.84C334.656 69 331.856 71.48 327.136 71.48H314.816V58.2H327.136C331.856 58.2 334.656 60.76 334.656 64.84Z" fill="white"/>
<path d="M356.903 80.76H393.383V71H367.703V57.64H385.863V48.44H367.703V37.72H392.423V27.96H356.903V80.76Z" fill="white"/>
<path d="M417.482 80.76H428.283V37.72H445.242V27.96H400.602V37.72H417.482V80.76Z" fill="white"/>
<path d="M455.159 80.76H491.639V71H465.959V57.64H484.119V48.44H465.959V37.72H490.679V27.96H455.159V80.76Z" fill="white"/>
<path d="M500.139 70.04C504.219 77.16 511.579 81.72 520.539 81.72C531.099 81.72 539.019 75.56 539.019 65.88C539.019 58.76 534.859 54.36 525.979 50.44L519.979 47.8C515.499 45.8 513.819 44.52 513.819 41.72C513.819 38.44 516.619 36.6 520.379 36.6C524.379 36.6 527.739 38.6 530.459 42.68L537.819 37C534.539 30.92 528.459 27 520.379 27C510.379 27 502.859 32.92 502.859 41.96C502.859 49 507.579 53.56 515.659 57.16L521.339 59.72C526.379 62.04 528.059 63.16 528.059 66.28C528.059 69.88 525.259 72.12 520.539 72.12C514.779 72.12 511.019 69.16 507.579 64.44L500.139 70.04Z" fill="white"/>
<path d="M548.986 74.28C548.986 78.52 552.266 81.72 556.506 81.72C560.746 81.72 563.866 78.52 563.866 74.28C563.866 70.12 560.666 66.84 556.506 66.84C552.266 66.84 548.986 70.12 548.986 74.28Z" fill="white"/>
<path d="M165 114.836H168.133V107.298H172.124C176.055 107.298 178.745 104.786 178.745 101.298C178.745 97.7799 176.055 95.3264 172.124 95.3264H165V114.836ZM168.133 104.52V98.1051H172.065C174.282 98.1051 175.523 99.4057 175.523 101.327C175.523 103.249 174.282 104.52 172.065 104.52H168.133Z" fill="white"/>
<path d="M199.113 114.836L193.26 106.796C195.595 105.879 197.014 103.869 197.014 101.298C197.014 97.7799 194.324 95.3264 190.392 95.3264H183.268V114.836H186.402V107.298H189.979L195.536 114.836H199.113ZM186.402 98.1051H190.333C192.491 98.1051 193.792 99.4057 193.792 101.327C193.792 103.219 192.491 104.52 190.333 104.52H186.402V98.1051Z" fill="white"/>
<path d="M202.951 114.836H216.135V112.028H206.085V105.85H213.386V103.13H206.085V98.1346H215.78V95.3264H202.951V114.836Z" fill="white"/>
<path d="M220.816 114.836H226.934C233.29 114.836 237.547 110.727 237.547 105.052C237.547 99.2875 233.319 95.3264 226.934 95.3264H220.816V114.836ZM223.949 112.028V98.1642H226.905C231.457 98.1642 234.324 100.913 234.324 105.052C234.324 109.131 231.428 112.028 226.905 112.028H223.949Z" fill="white"/>
<path d="M242.317 114.836H245.45V95.3264H242.317V114.836Z" fill="white"/>
<path d="M250.223 105.081C250.105 110.668 254.923 115.25 260.481 115.161C264.116 115.161 267.191 113.417 268.846 110.668L266.481 108.924C265.092 111.082 263.082 112.294 260.51 112.294C256.52 112.294 253.475 109.22 253.475 105.081C253.475 100.943 256.52 97.8686 260.51 97.8686C263.082 97.8686 265.092 99.0806 266.481 101.238L268.846 99.4944C267.161 96.7453 264.057 95.0013 260.481 95.0013C254.923 94.9126 250.105 99.4944 250.223 105.081Z" fill="white"/>
<path d="M278.211 114.836H281.344V98.1346H287.936V95.3264H271.648V98.1346H278.211V114.836Z" fill="white"/>
<circle cx="71" cy="71" r="58.8367" stroke="white" stroke-width="24.3267"/>
<path d="M72.3701 41.9148C72.023 41.2223 71.3551 40.8759 70.6872 40.8759C70.0193 40.8759 69.3513 41.2223 69.0042 41.9148L53.4673 72.9143C50.8889 78.1402 50.655 84.5642 53.4673 90.1755C56.8459 96.9164 63.6427 100.811 70.7022 100.811C73.6026 100.811 76.5485 100.153 79.3179 98.7647C86.5696 95.13 90.5268 87.5377 89.8844 79.9201C89.6844 77.5476 89.0391 75.1727 87.9071 72.9141L82.3886 61.9037L72.3701 41.9148Z" fill="white"/>
</svg>
